<?xml version="1.0" encoding="UTF-8" standalone="no"?>
<!-- Created with Inkscape (http://www.inkscape.org/) -->

<svg
   xmlns:dc="http://purl.org/dc/elements/1.1/"
   xmlns:cc="http://creativecommons.org/ns#"
   xmlns:rdf="http://www.w3.org/1999/02/22-rdf-syntax-ns#"
   xmlns:svg="http://www.w3.org/2000/svg"
   xmlns="http://www.w3.org/2000/svg"
   xmlns:sodipodi="http://sodipodi.sourceforge.net/DTD/sodipodi-0.dtd"
   xmlns:inkscape="http://www.inkscape.org/namespaces/inkscape"
   width="200.37778mm"
   height="112.88888mm"
   viewBox="0 0 710 399.99996"
   id="svg4435"
   version="1.1"
   inkscape:version="0.91 r13725"
   sodipodi:docname="cloudcast.svg">
  <defs
     id="defs4437" />
  <sodipodi:namedview
     id="base"
     pagecolor="#ffffff"
     bordercolor="#666666"
     borderopacity="1.0"
     inkscape:pageopacity="0.0"
     inkscape:pageshadow="2"
     inkscape:zoom="1"
     inkscape:cx="231.66596"
     inkscape:cy="255.09576"
     inkscape:document-units="px"
     inkscape:current-layer="layer1"
     showgrid="false"
     showguides="true"
     inkscape:guide-bbox="true"
     inkscape:window-width="1920"
     inkscape:window-height="1023"
     inkscape:window-x="0"
     inkscape:window-y="0"
     inkscape:window-maximized="1"
     fit-margin-top="0"
     fit-margin-left="0"
     fit-margin-right="0"
     fit-margin-bottom="0">
    <sodipodi:guide
       position="292.13672,200.003"
       orientation="0,1"
       id="guide5154" />
    <sodipodi:guide
       position="360,198.55378"
       orientation="1,0"
       id="guide5156" />
    <sodipodi:guide
       position="314.99609,-0.00090472439"
       orientation="0,1"
       id="guide5162" />
  </sodipodi:namedview>
  <metadata
     id="metadata4440">
    <rdf:RDF>
      <cc:Work
         rdf:about="">
        <dc:format>image/svg+xml</dc:format>
        <dc:type
           rdf:resource="http://purl.org/dc/dcmitype/StillImage" />
        <dc:title></dc:title>
      </cc:Work>
    </rdf:RDF>
  </metadata>
  <g
     inkscape:label="Ebene 1"
     inkscape:groupmode="layer"
     id="layer1"
     transform="translate(-0.00390625,-652.36133)">
    <path
       style="opacity:1;fill:#ffffff;fill-opacity:1;stroke:none;stroke-width:1;stroke-linecap:round;stroke-linejoin:miter;stroke-miterlimit:4;stroke-dasharray:none;stroke-dashoffset:0;stroke-opacity:1"
       d="m 360.00391,652.36133 a 200,200 0 0 0 -77.63868,15.70117 200,200 0 0 0 -0.79882,0.35547 200,200 0 0 0 -16.40625,7.92578 200,200 0 0 0 -3.38672,1.94141 200,200 0 0 0 -12.92383,7.92578 200,200 0 0 0 -5.70703,4.07617 200,200 0 0 0 -9.5918,7.29297 200,200 0 0 0 -7.61914,6.68945 200,200 0 0 0 -6.51562,6.07031 200,200 0 0 0 -9.07227,9.73047 200,200 0 0 0 -3.79297,4.31836 200,200 0 0 0 -9.93945,13.06641 200,200 0 0 0 -1.54688,2.16211 200,200 0 0 0 -34.56054,112.24414 200,200 0 0 0 0.41992,11.86133 l -9.82031,9.26757 a 200,200 0 0 1 -1.09961,-20.6289 200,200 0 0 1 25.6875,-97.47656 150,150 0 0 0 -25.6875,-2.52344 150,150 0 0 0 -150.00000375,150 A 150,150 0 0 0 150.00391,1052.3613 l 164.99609,0 39.51758,-175.62888 A 25,25 0 0 1 335,852.36133 a 25,25 0 0 1 25,-25 25,25 0 0 1 25,25 25,25 0 0 1 -19.51953,24.36133 L 405,1052.3613 l 155.00391,0 a 150,150 0 0 0 150,-149.99997 150,150 0 0 0 -150,-150 150,150 0 0 0 -10.8125,0.54687 150,150 0 0 0 -106.16602,55.87891 l -5.61328,-5.25391 A 150,150 0 0 1 533.43945,753.37891 200,200 0 0 0 360.00391,652.36133 Z m -0.004,25 a 175,175 0 0 1 85.74023,22.76758 L 433.51172,721.8418 A 150,150 0 0 0 360,702.36133 a 150,150 0 0 0 -150,150 150,150 0 0 0 102.97852,142.3164 l -5.49219,24.41207 A 175,175 0 0 1 185,852.36133 a 175,175 0 0 1 175,-175 z m 0,50 a 125,125 0 0 1 61.24414,16.26172 l -12.23633,21.72656 A 100,100 0 0 0 360,752.36133 a 100,100 0 0 0 -100,100 100,100 0 0 0 64.03125,93.1914 l -5.5293,24.57618 A 125,125 0 0 1 235,852.36133 a 125,125 0 0 1 125,-125 z m 47.77734,212.625 11.89454,21.8125 a 125,125 0 0 1 -18.19141,8.25 l -5.50586,-24.4668 a 100,100 0 0 0 11.80273,-5.5957 z m 23.85938,43.75586 12.03711,22.07421 a 175,175 0 0 1 -31.14453,13.3418 L 407,994.58398 a 150,150 0 0 0 24.63672,-10.84179 z"
       id="path4983"
       inkscape:connector-curvature="0" />
  </g>
</svg>
