<?xml version="1.0" encoding="UTF-8" standalone="no"?>
<svg
   xmlns:dc="http://purl.org/dc/elements/1.1/"
   xmlns:cc="http://creativecommons.org/ns#"
   xmlns:rdf="http://www.w3.org/1999/02/22-rdf-syntax-ns#"
   xmlns:svg="http://www.w3.org/2000/svg"
   xmlns="http://www.w3.org/2000/svg"
   xmlns:sodipodi="http://sodipodi.sourceforge.net/DTD/sodipodi-0.dtd"
   xmlns:inkscape="http://www.inkscape.org/namespaces/inkscape"
   inkscape:export-ydpi="16.16"
   inkscape:export-xdpi="16.16"
   inkscape:export-filename="/home/bond/cloudspeaker.png"
   sodipodi:docname="cloudspeaker.svg"
   inkscape:version="1.0 (4035a4f, 2020-05-01)"
   id="svg8"
   version="1.1"
   viewBox="0 0 210 297"
   height="297mm"
   width="210mm">
  <sodipodi:namedview
     inkscape:document-rotation="0"
     showborder="false"
     inkscape:pagecheckerboard="true"
     inkscape:showpageshadow="false"
     inkscape:snap-page="false"
     inkscape:snap-grids="true"
     inkscape:bbox-paths="true"
     inkscape:snap-bbox="true"
     inkscape:measure-end="0,0"
     inkscape:measure-start="534.966,-635.797"
     inkscape:guide-bbox="true"
     showguides="true"
     inkscape:window-maximized="0"
     inkscape:window-y="26"
     inkscape:window-x="0"
     inkscape:window-height="874"
     inkscape:window-width="1440"
     showgrid="false"
     inkscape:current-layer="layer1"
     inkscape:document-units="mm"
     inkscape:cy="543.5795"
     inkscape:cx="411.10275"
     inkscape:zoom="0.35355339"
     inkscape:pageshadow="2"
     inkscape:pageopacity="0"
     borderopacity="1.0"
     bordercolor="#666666"
     pagecolor="#ffffff"
     id="base">
    <sodipodi:guide
       inkscape:locked="false"
       id="guide119"
       orientation="0,1"
       position="371.52386,-429.16511" />
    <sodipodi:guide
       inkscape:locked="false"
       id="guide4813"
       orientation="1,0"
       position="7.8939698e-07,214.46499" />
    <sodipodi:guide
       inkscape:locked="false"
       id="guide4815"
       orientation="0,1"
       position="7.8939698e-07,149.0022" />
    <sodipodi:guide
       inkscape:locked="false"
       id="guide4817"
       orientation="1,0"
       position="195.94945,227.68093" />
    <sodipodi:guide
       inkscape:locked="false"
       id="guide4819"
       orientation="1,0"
       position="94.69298,149.0022" />
  </sodipodi:namedview>
  <defs
     id="defs2">
    <inkscape:perspective
       id="perspective125"
       inkscape:persp3d-origin="105 : 99 : 1"
       inkscape:vp_z="210 : 148.5 : 1"
       inkscape:vp_y="0 : 1000 : 0"
       inkscape:vp_x="0 : 148.5 : 1"
       sodipodi:type="inkscape:persp3d" />
  </defs>
  <metadata
     id="metadata5">
    <rdf:RDF>
      <cc:Work
         rdf:about="">
        <dc:format>image/svg+xml</dc:format>
        <dc:type
           rdf:resource="http://purl.org/dc/dcmitype/StillImage" />
        <dc:title />
      </cc:Work>
    </rdf:RDF>
  </metadata>
  <g
     style="opacity:1"
     inkscape:label="work"
     inkscape:groupmode="layer"
     id="layer1">
    <path
       transform="scale(0.26458333)"
       d="M 434.21094 -201.16211 A 760.52632 760.52632 0 0 0 -326.31445 559.36133 A 760.52632 760.52632 0 0 0 434.21094 1319.8887 A 760.52632 760.52632 0 0 0 1194.7383 559.36133 A 760.52632 760.52632 0 0 0 434.21094 -201.16211 z M 432.8457 -124.84766 A 684.21052 684.21052 0 0 1 434.21094 -124.84766 A 684.21052 684.21052 0 0 1 1118.4219 559.36133 A 684.21052 684.21052 0 0 1 434.21094 1243.5723 A 684.21052 684.21052 0 0 1 -250 559.36133 A 684.21052 684.21052 0 0 1 432.8457 -124.84766 z M 658.77148 0 C 522.69545 73.130047 427.49301 193.6299 370.07812 311.94336 C 357.51298 353.16529 898.34659 1205.5414 370.07812 800.63672 C 466.61241 919.69369 581.70137 1030.188 736.77539 1122.2266 C 763.62712 1047.5941 645.99883 651.01552 477.61914 412.91602 C 370.07782 260.84582 583.89395 -73.371727 736.81836 255.91992 C 745.02995 271.2091 697.73286 92.600124 658.77148 0 z M 65.591797 311.94336 C 29.254616 311.94336 9.4739031e-15 340.14716 0 375.17969 L 0 737.40234 C 0 772.4349 29.254616 800.63672 65.591797 800.63672 L 328.31055 800.63672 C 250.89946 758.72913 96.078125 750.93908 96.078125 669.4082 L 96.078125 441.45117 C 96.078125 364.96999 257.6337 340.99292 328.31055 311.94336 L 65.591797 311.94336 z "
       style="fill:#000000;fill-opacity:1;stroke:none;stroke-width:0.487845"
       id="rect123" />
  </g>
</svg>
